# xmcd
#
# Track frame offsets:
#	150
#	18880
#	28378
#	44088
#	57500
#	74296
#	94404
#	105799
#	130145
#	145716
#	165486
#	190963
#	211948
#	232888
#	266233
#
# Disc length: 3730
#
# Revision: 1
# Processed by: cddbd v1.5.1PL0 Copyright (c) Steve Scherf et al.
# Submitted via: dBpowerAMP V4.0
# Normalized: r0:TRMNUM
#
DISCID=d50e900f
DTITLE=James Taylor - Live - CD 1
DYEAR=1993
DGENRE=Blues
TTITLE0=Sweet Baby James
TTITLE1=Traffic Jam
TTITLE2=Handy Man
TTITLE3=Your Smiling Face
TTITLE4=Secret O' Life
TTITLE5=Shed a Little Light
TTITLE6=Everybody Has the Blues
TTITLE7=Steamroller Blues
TTITLE8=Mexico
TTITLE9=Millworker
TTITLE10=Country Road
TTITLE11=Fire and Rain
TTITLE12=Shower the People
TTITLE13=How Sweet It Is (To Be Loved by You)
TTITLE14=New Hymn
EXTD=
EXTT0=
EXTT1=
EXTT2=
EXTT3=
EXTT4=
EXTT5=
EXTT6=
EXTT7=
EXTT8=
EXTT9=
EXTT10=
EXTT11=
EXTT12=
EXTT13=
EXTT14=
PLAYORDER=
